<svg xmlns="http://www.w3.org/2000/svg" xmlns:xlink="http://www.w3.org/1999/xlink" viewBox="0 0 4096 4096"><defs><style>.cls-1{fill:url(#New_Gradient_Swatch_4);}.cls-2{fill:#fff;stroke:#000;stroke-linecap:round;stroke-linejoin:round;stroke-width:0.5px;}.cls-3{fill:url(#New_Gradient_Swatch_4-2);}</style><linearGradient id="New_Gradient_Swatch_4" x1="340.49" y1="1692.08" x2="3755.51" y2="1692.08" gradientUnits="userSpaceOnUse"><stop offset="0" stop-color="#ec1f3d"/><stop offset="0.15" stop-color="#e71f3c"/><stop offset="0.35" stop-color="#d71d38"/><stop offset="0.56" stop-color="#bd1b33"/><stop offset="0.79" stop-color="#99172b"/><stop offset="1" stop-color="#731422"/></linearGradient><linearGradient id="New_Gradient_Swatch_4-2" x1="352.52" y1="3017.24" x2="3742.26" y2="3017.24" xlink:href="#New_Gradient_Swatch_4"/></defs><title>FINAL Vectoriel - Logo AirThéLAN Rouge</title><g id="Pad_Manette_hors_grad" data-name="Pad Manette hors grad"><path class="cls-1" d="M3029.49,1272.37c-18.73,0-37.22,1.67-55.4,6.27a210.43,210.43,0,0,0-155.86,240.92c16.59,94.13,96.44,166.61,192.19,172.48,73.57,4.51,133.83-23.11,180.42-80.28,1.83-2.24,3.54-3.27,6.5-3.27q87.87.13,175.73,0a7.17,7.17,0,0,1,6.25,2.92c50.26,61.34,114.91,88.69,193.69,79.11,59.19-7.19,106.75-36.3,141.9-84.34,34.2-46.73,46.89-99.43,37.71-156.64-9.77-60.87-41.09-108.52-92.3-142.73-36-24.07-76.13-34.63-119.39-34.5-85.24.26-170.48.07-255.72.07S3114.73,1272.44,3029.49,1272.37Zm630.83,856.25c-36-24.06-76.13-34.62-119.39-34.49-85.24.25-170.48.07-255.72.07s-170.48,0-255.72,0c-18.73,0-37.22,1.67-55.4,6.28a210.43,210.43,0,0,0-155.86,240.92c16.59,94.13,96.44,166.6,192.19,172.47,73.57,4.51,133.83-23.11,180.42-80.27,1.83-2.25,3.54-3.27,6.5-3.27q87.87.12,175.73,0a7.17,7.17,0,0,1,6.25,2.92c50.26,61.33,114.91,88.68,193.69,79.11,59.19-7.2,106.75-36.31,141.9-84.34,34.2-46.73,46.89-99.44,37.71-156.64C3742.85,2210.48,3711.53,2162.83,3660.32,2128.62Zm-729.41-166.09q98.12-.16,196.23,0c43.76.12,78.13,18.26,102.21,55,11.52,17.55,17.08,37.16,18,58.1,0,1.14.11,2.28.19,3.7h74.71c-.52-7.7-.47-15.4-1.62-22.92q-17.37-113.16-123.51-156.35c-22.23-9-45.7-12.18-69.68-12.14q-98.1.16-196.22,0c-56.67,0-103.47-37.17-115.94-92.49-.32-1.41-.56-2.83-.77-4.26a77.79,77.79,0,0,0-59.47-128,78.74,78.74,0,0,0-12.66,1l-132.61-175.42,151.76-446.78q24.81,45,75.34,74.6c28.85,16.86,60.59,24.12,94,24.06q98.12-.17,196.23,0c43.76.11,78.13,18.26,102.21,55,11.52,17.56,17.08,37.17,18,58.11,0,1.14.11,2.28.19,3.69h74.71c-.52-7.69-.47-15.39-1.62-22.91q-17.37-113.16-123.51-156.35c-22.23-9-45.7-12.18-69.68-12.15q-98.1.18-196.22,0c-50.53,0-93.19-29.57-110.69-75.19a77.81,77.81,0,1,0-121.13,12.39l-141.59,416.8-57-75.38a129.4,129.4,0,0,0-172.53-187.51L1997.75,883.63a101,101,0,1,0-171.9,38.9l-184.09,402.3a131,131,0,0,0-14.5-.81,128.93,128.93,0,0,0-113.7,68.08l-148.79-26.5a141.21,141.21,0,0,0-275.88-23.9c-131.27,52.51-222.06,179.86-222.06,331.73v357.49c0,147.85,20.48,273.37-127.36,273.37s-136.11-111.37-136.11-241.82V1705H519.22v357.5c0,182.62,20.21,326,220.25,326S951,2231,951,2030.92V1673.43c0-101,58.54-191.49,142.73-238.77a141.24,141.24,0,0,0,257.37,9.14l148.39,26.43a128.82,128.82,0,0,0,45.28,81.83l-74.23,198.68a216.55,216.55,0,0,0-39.3-3.58c-119.26,0-215.94,96.68-215.94,215.94a215.33,215.33,0,0,0,65.57,155l-190,287.15a89.57,89.57,0,0,0-10.42-.62,88.25,88.25,0,1,0,76.64,44.41L1347,2162a216.29,216.29,0,0,0,203.64-18.94l258.3,258.29a153.86,153.86,0,1,0,271.39,4.82l174.49-160.52a234.64,234.64,0,0,0,218.47,36.43l88.2,168.61a95.29,95.29,0,1,0,74.26-35.59c-1.19,0-2.37,0-3.54.08L2542.8,2244.3a233.9,233.9,0,0,0,89.42-184.16c0-115.76-84-211.91-194.31-230.89V1389.4q4.92-1.59,9.66-3.57l239.66,317A77.81,77.81,0,0,0,2743.85,1818q18.63,76.79,93,120.43C2865.71,1955.34,2897.45,1962.59,2930.91,1962.53Zm-903.81,384.7a154,154,0,0,0-162.95-2.91l-256.58-256.58a216,216,0,0,0-63-308.44l73.85-197.68c2.92.19,5.86.3,8.82.3a128.35,128.35,0,0,0,71.09-21.35l493.34,388.3a234.48,234.48,0,0,0,9.36,238.34Zm331.42-518.07a233.41,233.41,0,0,0-117.81,57.26l-492.79-387.87a129.05,129.05,0,0,0-33.85-140.94l183.82-401.7c1,0,2,0,3,0a100.55,100.55,0,0,0,46.21-11.17l330.57,273.64a129.51,129.51,0,0,0,80.83,171.17ZM482.43,979.47H514v210.22s14.85,16.75,48.32,16.75,46.31-16.75,46.31-16.75V979.47h31.54V884.84H482.43ZM671.69,821.76H640.15V853.3h31.54Zm0,189.26H640.15v94.63h110.4V821.76H719v63.08H671.69ZM608.61,821.76H577.06V853.3h31.55ZM482.43,1011H450.89V884.84H403.57V821.76H372v283.89h110.4Zm63.09-189.26H514V853.3h31.54Zm144.28,790,68.4-148.84c12.26-33.15,23.9-57.12,23.9-92.3V1153H694.8c-21.47,47.32-72.77,83.4-132.69,83.4s-111.25-36.08-132.69-83.4H340.49v217.63c0,35.18,12.46,59.09,24.7,92.25l67.92,148.9c6.17,16.56,27.31,30.14,45.71,30.14H645.4C663.76,1641.88,683.68,1628.3,689.8,1611.73Zm-207.37-790H450.89V853.3h31.54Z"/><path class="cls-2" d="M2983.25,1524.56h-14.51c-16,0-32,0-48.08,0-12.3,0-21.27-8.84-21.4-21.14-.16-13.7-.12-27.4,0-41.09.09-13,8.67-21.68,21.63-21.76,18.94-.12,37.88,0,56.82,0H2983c.07-1.71.21-3.24.21-4.77,0-18.94,0-37.88,0-56.82,0-13.79,8.45-22.31,22.31-22.42q19.66-.18,39.34,0c13.8.12,22.31,8.75,22.34,22.47q0,28.2,0,56.39v5.16h5.13c18.65,0,37.3,0,55.95,0,14.58,0,22.92,8.48,23,23.13,0,12.82,0,25.64,0,38.46-.05,13.71-8.74,22.41-22.37,22.43q-28.18,0-56.38,0h-5.27v5q0,28.18,0,56.39c0,14-8.64,22.62-22.58,22.65q-19.44,0-38.9,0c-14,0-22.49-8.59-22.51-22.67,0-18.65,0-37.3,0-56Z"/><path class="cls-2" d="M3545.3,1608.55a42,42,0,1,1,42-42A41.86,41.86,0,0,1,3545.3,1608.55Z"/><path class="cls-2" d="M3460.94,1440.58a42,42,0,0,1,42.24,41.65c.29,23-18.9,42.35-42.09,42.33a42,42,0,0,1-.15-84Z"/><path class="cls-2" d="M3587.33,1482.64a42,42,0,1,1,84,0,42,42,0,0,1-84,0Z"/><path class="cls-2" d="M3503.26,1398.29a42,42,0,0,1,84,.14,42,42,0,1,1-84-.14Z"/><path class="cls-2" d="M2983.25,2346.37h-14.51c-16,0-32,.05-48.08,0-12.3,0-21.27-8.83-21.4-21.14-.16-13.7-.12-27.39,0-41.09.09-13,8.67-21.67,21.63-21.75,18.94-.12,37.88,0,56.82,0H2983c.07-1.71.21-3.24.21-4.76,0-18.94,0-37.89,0-56.83,0-13.79,8.45-22.3,22.31-22.42q19.66-.17,39.34,0c13.8.12,22.31,8.74,22.34,22.47q0,28.18,0,56.39v5.15h5.13c18.65,0,37.3,0,55.95,0,14.58,0,22.92,8.48,23,23.13,0,12.82,0,25.64,0,38.47-.05,13.7-8.74,22.4-22.37,22.42q-28.18,0-56.38,0h-5.27v5q0,28.2,0,56.39c0,14-8.64,22.63-22.58,22.65q-19.44,0-38.9,0c-14,0-22.49-8.59-22.51-22.67,0-18.65,0-37.3,0-56Z"/><path class="cls-2" d="M3545.3,2430.36a42,42,0,1,1,42-42A41.86,41.86,0,0,1,3545.3,2430.36Z"/><path class="cls-2" d="M3460.94,2262.38a42,42,0,0,1,42.24,41.65c.29,23-18.9,42.35-42.09,42.34a42,42,0,0,1-.15-84Z"/><path class="cls-2" d="M3587.33,2304.44a42,42,0,1,1,84,0,42,42,0,0,1-84,0Z"/><path class="cls-2" d="M3503.26,2220.09a42,42,0,0,1,84,.15,42,42,0,1,1-84-.15Z"/></g><g id="texte"><path class="cls-3" d="M698.9,3266,557.53,2980.82,444.32,3211.54h164L644.44,3266H352.52l205-413.09L765.61,3266Z"/><path class="cls-3" d="M822.51,3266V2884.13H880V3266Z"/><path class="cls-3" d="M1227,3266l-105.87-208.08h69.15a36.47,36.47,0,0,0,20.19-5.51,46.21,46.21,0,0,0,14.08-14.07,60.52,60.52,0,0,0,8-19,86.4,86.4,0,0,0,2.44-19.59,68.53,68.53,0,0,0-3.36-20.5,84.8,84.8,0,0,0-9.18-19.89,50.62,50.62,0,0,0-14.38-15,34.12,34.12,0,0,0-19.59-5.81h-172V3266H959V2884.13h237.45a83.78,83.78,0,0,1,37.94,8.87,100.23,100.23,0,0,1,31.21,24.48,120.15,120.15,0,0,1,21.42,37,130.86,130.86,0,0,1,8,45.9,118.38,118.38,0,0,1-6.43,38.86,124.8,124.8,0,0,1-17.75,34,104.78,104.78,0,0,1-26.62,25.4,85.93,85.93,0,0,1-33,13.16L1289.45,3266Z"/><path class="cls-3" d="M1358.61,2884.13h333.53v54.47H1553.83V3266h-58.14V2938.6H1358.61Z"/><path class="cls-3" d="M1769.25,3266V2884.13h57.52V3266Zm294.36,0V3112.4H1862.88v-54.47h200.73v-173.8h58.75V3266Z"/><path class="cls-3" d="M2491.38,2880.46v54.46H2258.22v276h233.16V3266H2200.69V2880.46Zm-156.05-7.35-46.51-38.55,64.87-66.1,48.34,42.23Zm-37.95,238.06V3056.1H2487.1v55.07Z"/><path class="cls-3" d="M2569.71,2884.13h57.53v327.41h233.17V3266h-290.7Z"/><path class="cls-3" d="M3262.47,3266,3121.1,2980.82l-113.21,230.72h164L3208,3266H2916.09l205-413.09L3329.18,3266Z"/><path class="cls-3" d="M3443.61,2954.51V3266h-57.53V2884.13h80.79l216.64,310.27V2884.13h58.75V3266h-77.72Z"/></g></svg>